<?xml version="1.0" encoding="utf-8"?>
<!-- Generator: Adobe Illustrator 24.0.2, SVG Export Plug-In . SVG Version: 6.00 Build 0)  -->
<svg version="1.1" id="Layer_1" xmlns="http://www.w3.org/2000/svg" xmlns:xlink="http://www.w3.org/1999/xlink" x="0px" y="0px"
	 viewBox="0 0 217.05 132.9" style="enable-background:new 0 0 217.05 132.9;" xml:space="preserve">
<style type="text/css">
	.st0{fill:#242924;}
</style>
<path class="st0" d="M0,0h36.01c49.94,0,69.66,34.44,74.04,67.16c7.67,55.41-36.63,65.74-74.04,65.74H0V0z M39.45,99.25
	c44.61,0,51.19-12.53,47.75-35.85c-2.82-19.88-12.21-42.27-47.75-42.27H18.48v78.12H39.45z"/>
<path class="st0" d="M179.02,61.21h-12.68V47.27h12.68c0-33.5,7.98-38.82,24.1-38.82h12.53v11.74h-12.68
	c-13.93,0-11.59,21.3-10.17,27.4l24.26-0.32v13.93h-22.38l2.35,71.7h-20.34L179.02,61.21z"/>
</svg>
