<!DOCTYPE svg PUBLIC "-//W3C//DTD SVG 1.1//EN" "http://www.w3.org/Graphics/SVG/1.1/DTD/svg11.dtd">
<!-- Uploaded to: SVG Repo, www.svgrepo.com, Transformed by: SVG Repo Mixer Tools -->
<svg width="800px" height="800px" viewBox="-1.5 0 15 15" xmlns="http://www.w3.org/2000/svg" fill="#3d403c">
<g id="SVGRepo_bgCarrier" stroke-width="0"/>
<g id="SVGRepo_tracerCarrier" stroke-linecap="round" stroke-linejoin="round"/>
<g id="SVGRepo_iconCarrier"> <path fill="#3d403c" fill-rule="evenodd" d="M392.54029,248.622619 C391.919172,247.841981 391.241067,247.124106 390.63952,246.594006 C390.375508,246.361352 389.889452,246 390,246 C390.110548,246 389.624492,246.361352 389.36048,246.594006 C388.758933,247.124106 388.080828,247.841981 387.45971,248.622619 C385.937499,250.535776 385,252.487925 385,254 C385,256.808331 387.210659,259 390,259 C392.789341,259 395,256.808331 395,254 C395,252.487925 394.062501,250.535776 392.54029,248.622619 Z M390,260 C386.686292,260 384,257.388328 384,254 C384,250 389.13916,245 390,245 C390.86084,245 396,250 396,254 C396,257.388328 393.313708,260 390,260 Z" transform="translate(-384 -245)"/> </g>
</svg>