<svg id="Layer_1" data-name="Layer 1" xmlns="http://www.w3.org/2000/svg" viewBox="0 0 82.5 70.47"><defs><style>.cls-1{fill:none;}</style></defs><title>jawatranslate</title><path d="M39.49,47.92a4,4,0,0,1-1.7-.37,3.31,3.31,0,0,1-1.28-1.06,1,1,0,0,1-.19-.56.84.84,0,0,1,.31-.67,1,1,0,0,1,.62-.27.85.85,0,0,1,.47.14,2.72,2.72,0,0,1,.42.34,2.32,2.32,0,0,0,.63.41,2,2,0,0,0,.72.12,1.64,1.64,0,0,0,.89-.25,1.9,1.9,0,0,0,.68-.64,1.54,1.54,0,0,0,.25-.86V37.52a.93.93,0,0,1,.31-.7,1,1,0,0,1,.7-.28,1,1,0,0,1,.72.28.94.94,0,0,1,.28.7v6.73a3.34,3.34,0,0,1-.52,1.81,4,4,0,0,1-1.37,1.34A3.69,3.69,0,0,1,39.49,47.92Z"/><path d="M52.57,39a.93.93,0,0,1,.69.27,1,1,0,0,1,.28.7v6.78a1,1,0,0,1-.28.7,1,1,0,0,1-1.65-.7V46l.36.14a.88.88,0,0,1-.23.5,2.87,2.87,0,0,1-.61.59,3.82,3.82,0,0,1-.9.49,3.24,3.24,0,0,1-1.13.2,3.62,3.62,0,0,1-2-.57,4,4,0,0,1-1.42-1.57,5.37,5.37,0,0,1,0-4.61,4,4,0,0,1,1.4-1.57A3.53,3.53,0,0,1,49,39a3.68,3.68,0,0,1,1.27.21,3.63,3.63,0,0,1,1,.52,3.4,3.4,0,0,1,.66.65,1.09,1.09,0,0,1,.23.56l-.58.2V40a.92.92,0,0,1,.28-.69A.9.9,0,0,1,52.57,39Zm-3.23,7.13a2.12,2.12,0,0,0,1.23-.36,2.36,2.36,0,0,0,.83-1,3.15,3.15,0,0,0,.29-1.36,3.25,3.25,0,0,0-.29-1.38,2.5,2.5,0,0,0-.83-1,2.32,2.32,0,0,0-2.45,0,2.4,2.4,0,0,0-.82,1,3.11,3.11,0,0,0-.3,1.38,3,3,0,0,0,.3,1.36,2.27,2.27,0,0,0,.82,1A2.11,2.11,0,0,0,49.34,46.16Z"/><path d="M65.39,39.19a.86.86,0,0,1,.64.28,1,1,0,0,1,.27.71,1.21,1.21,0,0,1,0,.2c0,.06,0,.12-.05.17l-2.45,6.6a1,1,0,0,1-.4.49,1,1,0,0,1-.61.12.94.94,0,0,1-.82-.61l-1.58-4.57.41,0L59.3,47.15a.94.94,0,0,1-.81.61,1,1,0,0,1-.61-.12.92.92,0,0,1-.4-.49L55,40.55a.94.94,0,0,1-.07-.37,1,1,0,0,1,.26-.69.87.87,0,0,1,.7-.3,1.1,1.1,0,0,1,.55.14.76.76,0,0,1,.33.47l1.94,5.25-.4,0,1.46-4a.89.89,0,0,1,.88-.59.87.87,0,0,1,.54.15,1,1,0,0,1,.29.44L63,45l-.48.06,2-5.28A.86.86,0,0,1,65.39,39.19Z"/><path d="M74.9,39a.93.93,0,0,1,.69.27,1,1,0,0,1,.27.7v6.78a1,1,0,0,1-.27.7.94.94,0,0,1-.69.28.94.94,0,0,1-1-1V46l.35.14a.85.85,0,0,1-.22.5,2.87,2.87,0,0,1-.61.59,4,4,0,0,1-.9.49,3.24,3.24,0,0,1-1.13.2,3.68,3.68,0,0,1-2-.57A4,4,0,0,1,68,45.78a5.37,5.37,0,0,1,0-4.61,4,4,0,0,1,1.4-1.57,3.53,3.53,0,0,1,2-.57,3.72,3.72,0,0,1,1.27.21,3.63,3.63,0,0,1,1,.52,3.4,3.4,0,0,1,.66.65,1.09,1.09,0,0,1,.23.56l-.58.2V40a1,1,0,0,1,.27-.69A.94.94,0,0,1,74.9,39Zm-3.23,7.13a2.12,2.12,0,0,0,1.23-.36,2.36,2.36,0,0,0,.83-1A3.15,3.15,0,0,0,74,43.48a3.25,3.25,0,0,0-.29-1.38,2.5,2.5,0,0,0-.83-1,2.32,2.32,0,0,0-2.45,0,2.4,2.4,0,0,0-.82,1,3.11,3.11,0,0,0-.3,1.38,3,3,0,0,0,.3,1.36,2.27,2.27,0,0,0,.82,1A2.11,2.11,0,0,0,71.67,46.16Z"/><path class="cls-1" d="M22.86,31.39A1.92,1.92,0,0,1,22.3,30V11.45a1.91,1.91,0,0,1,2-2h7.67a9.29,9.29,0,0,1,4.1.87,8.41,8.41,0,0,1,3,2.42,10.57,10.57,0,0,1,1.86,3.59,14.66,14.66,0,0,1,.63,4.35c0,.29,0,.56,0,.84h7.24V9.38a5.63,5.63,0,0,0-5.62-5.63H9.38A5.63,5.63,0,0,0,3.75,9.38v22.5A5.63,5.63,0,0,0,9.38,37.5h1.87a1.88,1.88,0,0,1,1.88,1.88v5.75l5-6.87a1.86,1.86,0,0,1,1.51-.76H30V32H24.26A1.92,1.92,0,0,1,22.86,31.39ZM17.49,30a1.85,1.85,0,0,1-.61,1.4,2,2,0,0,1-1.41.56,1.89,1.89,0,0,1-2-2V11.45a1.86,1.86,0,0,1,.58-1.4,2,2,0,0,1,1.47-.56,1.93,1.93,0,0,1,1.36.56,1.85,1.85,0,0,1,.6,1.4Z"/><path class="cls-1" d="M37,17.85a7.4,7.4,0,0,0-1-2.41,5.27,5.27,0,0,0-1.8-1.65,5.18,5.18,0,0,0-2.6-.61H26.31V28.26h4.07a8.9,8.9,0,0,1,7-6.5c0-.34,0-.69,0-1A11.63,11.63,0,0,0,37,17.85Z"/><path class="cls-1" d="M73.13,25.31H40.83a11.27,11.27,0,0,1-.4,1.07,9.58,9.58,0,0,1-3.26,4.06,8.14,8.14,0,0,1-3.42,1.35V53.44a5.63,5.63,0,0,0,5.63,5.62H60.94a1.86,1.86,0,0,1,1.32.55l7.12,7.11V60.94h0a1.88,1.88,0,0,1,1.87-1.88h1.88a5.62,5.62,0,0,0,5.62-5.62V30.94A5.63,5.63,0,0,0,73.13,25.31Z"/><path d="M73.13,21.56H52.5V9.38A9.39,9.39,0,0,0,43.13,0H9.38A9.39,9.39,0,0,0,0,9.38v22.5a9.39,9.39,0,0,0,9.38,9.37v3.92a3.75,3.75,0,0,0,6.4,2.64,2,2,0,0,0,.19-.22l4.67-6.34H30V53.44a9.38,9.38,0,0,0,9.38,9.37H60.16l6.56,6.57a3.75,3.75,0,0,0,6.4-2.66V62.81a9.38,9.38,0,0,0,9.38-9.37V30.94A9.39,9.39,0,0,0,73.13,21.56Zm5.62,31.88a5.62,5.62,0,0,1-5.62,5.62H71.25a1.88,1.88,0,0,0-1.87,1.88h0v5.78l-7.12-7.11a1.86,1.86,0,0,0-1.32-.55H39.38a5.63,5.63,0,0,1-5.63-5.62V31.79a11.74,11.74,0,0,1-1.82.16H30V37.5H19.69a1.86,1.86,0,0,0-1.51.76l-5,6.87V39.38a1.88,1.88,0,0,0-1.88-1.88H9.38a5.63,5.63,0,0,1-5.63-5.62V9.38A5.63,5.63,0,0,1,9.38,3.75H43.13a5.63,5.63,0,0,1,5.62,5.63V21.56H41.51a14.16,14.16,0,0,1-.68,3.75h32.3a5.63,5.63,0,0,1,5.62,5.63Z"/><path d="M30.38,28.26H31.6a5.12,5.12,0,0,0,3.31-1,6.11,6.11,0,0,0,1.88-2.76,11.25,11.25,0,0,0,.55-2.7A8.9,8.9,0,0,0,30.38,28.26Z"/><path d="M15.53,9.49a2,2,0,0,0-1.47.56,1.86,1.86,0,0,0-.58,1.4V30a1.89,1.89,0,0,0,2,2,2,2,0,0,0,1.41-.56,1.85,1.85,0,0,0,.61-1.4V11.45a1.85,1.85,0,0,0-.6-1.4A1.93,1.93,0,0,0,15.53,9.49Z"/><polygon points="25.99 13.18 26.31 13.18 26.31 12.89 25.99 13.18"/><polygon points="26.31 28.61 26.31 28.26 26.12 28.26 26.31 28.61"/><path d="M30.38,28.26H26.31v.35l-.19-.35h.19V13.18H26l.32-.29v.29H31.6a5.18,5.18,0,0,1,2.6.61A5.27,5.27,0,0,1,36,15.44a7.4,7.4,0,0,1,1,2.41,11.63,11.63,0,0,1,.34,2.87c0,.35,0,.7,0,1a10.94,10.94,0,0,1,2-.2h2.13c0-.28,0-.55,0-.84a14.66,14.66,0,0,0-.63-4.35,10.57,10.57,0,0,0-1.86-3.59,8.41,8.41,0,0,0-3-2.42,9.29,9.29,0,0,0-4.1-.87H24.26a1.91,1.91,0,0,0-2,2V30a1.91,1.91,0,0,0,2,2H30v-1A9.91,9.91,0,0,1,30.38,28.26Z"/><path d="M39.38,25.31h1.45a14.16,14.16,0,0,0,.68-3.75H39.38a10.94,10.94,0,0,0-2,.2,11.25,11.25,0,0,1-.55,2.7,6.11,6.11,0,0,1-1.88,2.76,5.12,5.12,0,0,1-3.31,1H30.38A9.91,9.91,0,0,0,30,30.94v1h1.93a11.74,11.74,0,0,0,1.82-.16v-.85A5.64,5.64,0,0,1,39.38,25.31Z"/></svg>